<svg xmlns="http://www.w3.org/2000/svg" width="1080" height="1920" viewBox="0 0 1080 1920">
  <defs>
    <linearGradient id="bg" x1="0%" y1="0%" x2="0%" y2="100%">
      <stop offset="0%" stop-color="#0b1220"/>
      <stop offset="100%" stop-color="#0f172a"/>
    </linearGradient>
    <linearGradient id="phoneBg" x1="0%" y1="0%" x2="0%" y2="100%">
      <stop offset="0%" stop-color="#111827"/>
      <stop offset="100%" stop-color="#1e293b"/>
    </linearGradient>
    <linearGradient id="cta" x1="0%" y1="0%" x2="100%" y2="0%">
      <stop offset="0%" stop-color="#06b6d4"/>
      <stop offset="100%" stop-color="#3b82f6"/>
    </linearGradient>
    <filter id="shadow" x="-20%" y="-20%" width="140%" height="140%">
      <feDropShadow dx="0" dy="8" stdDeviation="10" flood-color="#000000" flood-opacity="0.45"/>
    </filter>
    <style>
      .h1 { font: 700 44px Arial, sans-serif; fill: #e2e8f0; }
      .h2 { font: 500 24px Arial, sans-serif; fill: #93c5fd; }
      .h3 { font: 700 36px Arial, sans-serif; fill: #f8fafc; }
      .label { font: 600 22px Arial, sans-serif; fill: #cbd5e1; }
      .text { font: 20px Arial, sans-serif; fill: #cbd5e1; }
      .small { font: 18px Arial, sans-serif; fill: #94a3b8; }
      .btn { font: 700 21px Arial, sans-serif; fill: #ffffff; }
      .phone { fill: url(#phoneBg); stroke: #334155; stroke-width: 4; rx: 48; filter: url(#shadow); }
      .notch { fill: #0b1220; rx: 10; }
      .card { fill: #0f172a; stroke: #334155; stroke-width: 2; rx: 20; }
      .field { fill: #111827; stroke: #475569; stroke-width: 2; rx: 12; }
      .chip { fill: #1e293b; stroke: #475569; stroke-width: 1; rx: 12; }
      .cta { fill: url(#cta); rx: 16; }
      .soft { fill: #13263b; stroke: #1d4ed8; stroke-width: 1; rx: 12; }
      .warn { fill: #2a1a10; stroke: #f59e0b; stroke-width: 1; rx: 12; }
      .ok { fill: #062a2e; stroke: #22d3ee; stroke-width: 1; rx: 12; }
      .icon { fill: #38bdf8; }
    </style>
  </defs>
  <rect width="1080" height="1920" fill="url(#bg)"/>
  <text x="60" y="90" class="h1">Smart Health Assistant</text>
  <text x="60" y="126" class="h2">Premium 01 - Registracija in profil</text>
  <rect x="270" y="160" width="540" height="1640" class="phone"/>
  <rect x="458" y="178" width="164" height="20" class="notch"/>

  <text x="330" y="258" class="h3">Ustvari profil</text>
  <rect x="320" y="292" width="440" height="1280" class="card"/>
  <circle cx="380" cy="345" r="18" class="icon"/><text x="410" y="352" class="label">Osebni podatki</text>
  <rect x="350" y="380" width="380" height="58" class="field"/><text x="368" y="416" class="small">Ime in priimek</text>
  <rect x="350" y="452" width="182" height="58" class="field"/><text x="368" y="488" class="small">Starost</text>
  <rect x="548" y="452" width="182" height="58" class="field"/><text x="566" y="488" class="small">Spol</text>
  <rect x="350" y="524" width="182" height="58" class="field"/><text x="368" y="560" class="small">Višina</text>
  <rect x="548" y="524" width="182" height="58" class="field"/><text x="566" y="560" class="small">Teža</text>
  <rect x="350" y="596" width="380" height="58" class="field"/><text x="368" y="632" class="small">Alergije</text>
  <rect x="350" y="668" width="380" height="120" class="field"/><text x="368" y="706" class="small">Kronične težave</text>
  <rect x="350" y="804" width="380" height="90" class="field"/><text x="368" y="854" class="small">Trenutna zdravila (opcijsko)</text>
  <rect x="350" y="920" width="380" height="72" class="cta"/><text x="470" y="964" class="btn">Shrani profil</text>
  <rect x="350" y="1010" width="380" height="84" class="warn"/><text x="368" y="1060" class="small">Podpora uporabniku, ne diagnoza.</text>
</svg>
