<svg xmlns="http://www.w3.org/2000/svg" width="1080" height="1920" viewBox="0 0 1080 1920">
  <defs>
    <linearGradient id="bg" x1="0%" y1="0%" x2="0%" y2="100%">
      <stop offset="0%" stop-color="#0b1220"/>
      <stop offset="100%" stop-color="#0f172a"/>
    </linearGradient>
    <linearGradient id="phoneBg" x1="0%" y1="0%" x2="0%" y2="100%">
      <stop offset="0%" stop-color="#111827"/>
      <stop offset="100%" stop-color="#1e293b"/>
    </linearGradient>
    <linearGradient id="cta" x1="0%" y1="0%" x2="100%" y2="0%">
      <stop offset="0%" stop-color="#06b6d4"/>
      <stop offset="100%" stop-color="#3b82f6"/>
    </linearGradient>
    <filter id="shadow" x="-20%" y="-20%" width="140%" height="140%">
      <feDropShadow dx="0" dy="8" stdDeviation="10" flood-color="#000000" flood-opacity="0.45"/>
    </filter>
    <style>
      .h1 { font: 700 44px Arial, sans-serif; fill: #e2e8f0; }
      .h2 { font: 500 24px Arial, sans-serif; fill: #93c5fd; }
      .h3 { font: 700 36px Arial, sans-serif; fill: #f8fafc; }
      .label { font: 600 22px Arial, sans-serif; fill: #cbd5e1; }
      .text { font: 20px Arial, sans-serif; fill: #cbd5e1; }
      .small { font: 18px Arial, sans-serif; fill: #94a3b8; }
      .btn { font: 700 21px Arial, sans-serif; fill: #ffffff; }
      .phone { fill: url(#phoneBg); stroke: #334155; stroke-width: 4; rx: 48; filter: url(#shadow); }
      .notch { fill: #0b1220; rx: 10; }
      .card { fill: #0f172a; stroke: #334155; stroke-width: 2; rx: 20; }
      .field { fill: #111827; stroke: #475569; stroke-width: 2; rx: 12; }
      .chip { fill: #1e293b; stroke: #475569; stroke-width: 1; rx: 12; }
      .cta { fill: url(#cta); rx: 16; }
      .soft { fill: #13263b; stroke: #1d4ed8; stroke-width: 1; rx: 12; }
      .warn { fill: #2a1a10; stroke: #f59e0b; stroke-width: 1; rx: 12; }
      .ok { fill: #062a2e; stroke: #22d3ee; stroke-width: 1; rx: 12; }
      .icon { fill: #38bdf8; }
    </style>
  </defs>
  <rect width="1080" height="1920" fill="url(#bg)"/>
  <text x="60" y="90" class="h1">Smart Health Assistant</text>
  <text x="60" y="126" class="h2">Premium 02 - Nadzorna plošča</text>
  <rect x="270" y="160" width="540" height="1640" class="phone"/>
  <rect x="458" y="178" width="164" height="20" class="notch"/>

  <text x="330" y="258" class="h3">Dobrodošel nazaj</text>
  <rect x="320" y="292" width="440" height="1300" class="card"/>
  <rect x="350" y="330" width="380" height="110" class="soft"/>
  <text x="370" y="372" class="text">2 aktivna opomnika</text><text x="370" y="404" class="small">Zadnji vnos: pred 3 urami</text>
  <rect x="350" y="458" width="180" height="82" class="card"/><text x="388" y="507" class="small">Dodaj simptom</text>
  <rect x="550" y="458" width="180" height="82" class="card"/><text x="592" y="507" class="small">Dodaj meritev</text>
  <rect x="350" y="554" width="180" height="82" class="card"/><text x="412" y="603" class="small">Zdravila</text>
  <rect x="550" y="554" width="180" height="82" class="card"/><text x="620" y="603" class="small">OCR</text>
  <rect x="350" y="654" width="380" height="260" class="field"/>
  <text x="370" y="694" class="label">Dnevni povzetek</text>
  <text x="370" y="730" class="small">Počutje: dobro</text>
  <text x="370" y="760" class="small">Temperatura: 36.8 C</text>
  <text x="370" y="790" class="small">Srčni utrip: 72 bpm</text>
  <text x="370" y="820" class="small">Predlog: odpri AI povzetek</text>
  <rect x="350" y="940" width="380" height="66" class="soft"/><text x="388" y="980" class="small">Domov  Zgodovina  Zdravila  Nastavitve</text>
</svg>
